# xmcd
#
# Track frame offsets:
#	150
#	15753
#	31787
#	47931
#	65934
#	80069
#	94900
#	111152
#	130177
#	150622
#	165042
#	183301
#
# Disc length: 2655 seconds
#
# Revision: 1
# Processed by: cddbd v1.5.1PL0 Copyright (c) Steve Scherf et al.
# Submitted via: EasyCDDAExtractor 7.0.5.3
#
DISCID=8f0a5d0c
DTITLE=Majakkataajuus - Syv‰lle
DYEAR=2004
DGENRE=Gospel
TTITLE0=Kultaa kest‰v‰‰
TTITLE1=Maailmaasi
TTITLE2=Halleluja
TTITLE3=Aarre
TTITLE4=Syv‰lle
TTITLE5=Unelma
TTITLE6=Kaiken sulta saan
TTITLE7=Herra taivaan
TTITLE8=T‰ss‰ oon
TTITLE9=T‰ss‰ ja nyt
TTITLE10=L‰hellesi
TTITLE11=Sinun oon
EXTD=
EXTT0=
EXTT1=
EXTT2=
EXTT3=
EXTT4=
EXTT5=
EXTT6=
EXTT7=
EXTT8=
EXTT9=
EXTT10=
EXTT11=
PLAYORDER=
